<svg width="513" height="63" viewBox="0 0 513 63" fill="none" xmlns="http://www.w3.org/2000/svg">
<path d="M45.4321 25.4337L68.4006 25.4337L49.924 37.7535L49.0254 38.3527L49.3859 39.3708L56.5078 59.4869L37.6884 46.9384L36.9187 46.4252L36.1491 46.9384L17.3297 59.4869L24.4516 39.3708L24.812 38.3527L23.9134 37.7535L5.43683 25.4337L28.4053 25.4337H29.3859L29.7131 24.5093L36.9187 4.15688L44.1243 24.5093L44.4515 25.4337H45.4321ZM154.36 25.4337L176.862 25.4337L158.738 37.7606L157.859 38.3585L158.207 39.3627L165.18 59.4505L146.793 46.9455L146.013 46.4149L145.233 46.9455L126.846 59.4505L133.819 39.3627L134.167 38.3585L133.288 37.7606L115.164 25.4337L137.667 25.4337H138.654L138.977 24.5012L146.013 4.23085L153.049 24.5012L153.373 25.4337H154.36ZM256.595 4.01781L264.14 24.5254L264.475 25.4337H265.442L289.341 25.4337L270.161 37.7401L269.224 38.3416L269.608 39.3868L277.029 59.5549L257.344 46.925L256.595 46.4443L255.846 46.925L236.162 59.5548L243.582 39.3868L243.967 38.3416L243.029 37.7401L223.849 25.4337L247.748 25.4337H248.716L249.05 24.5254L256.595 4.01781ZM484.786 25.4337L507.754 25.4337L489.277 37.7535L488.379 38.3527L488.739 39.3708L495.861 59.4869L477.042 46.9384L476.272 46.4252L475.503 46.9384L456.683 59.4869L463.805 39.3708L464.166 38.3527L463.267 37.7535L444.79 25.4337L467.759 25.4337H468.739L469.067 24.5093L476.272 4.15685L483.478 24.5093L483.805 25.4337H484.786ZM367.177 4.23081L374.213 24.5012L374.537 25.4337H375.524L398.027 25.4337L379.902 37.7606L379.023 38.3585L379.371 39.3627L386.344 59.4505L367.957 46.9455L367.177 46.4149L366.397 46.9455L348.01 59.4505L354.983 39.3627L355.331 38.3585L354.453 37.7606L336.328 25.4337L358.831 25.4337H359.818L360.141 24.5012L367.177 4.23081Z" fill="black" stroke="black" stroke-width="2.77465"/>
</svg>
