<svg width="257" height="147" viewBox="0 0 257 147" fill="none" xmlns="http://www.w3.org/2000/svg">
<path d="M212.435 127.586C215.679 124.532 218.684 121.251 221.43 117.748C220.893 118.44 220.354 119.133 219.817 119.825C224.231 114.135 227.912 107.931 230.746 101.319C230.4 102.137 230.053 102.953 229.706 103.771C232.395 97.4053 234.268 90.7385 235.201 83.8966C235.077 84.8052 234.956 85.7165 234.832 86.6251C235.636 80.5057 235.677 74.3206 234.865 68.2012C234.989 69.1098 235.11 70.0211 235.234 70.9297C234.469 65.4097 233.014 60.0237 230.837 54.8868C231.184 55.7051 231.531 56.5206 231.877 57.3389C229.77 52.4538 227.04 47.8752 223.78 43.6633C224.316 44.3557 224.855 45.0481 225.392 45.7405C221.856 41.2248 217.754 37.1963 213.219 33.6768C213.915 34.2104 214.611 34.7469 215.308 35.2805C210.052 31.2438 204.285 27.9378 198.171 25.3707C198.994 25.7155 199.814 26.0603 200.636 26.4052C194.066 23.6821 187.173 21.8402 180.121 20.8878C181.034 21.011 181.951 21.1314 182.864 21.2546C175.515 20.2939 168.083 20.3131 160.736 21.2901C161.65 21.167 162.566 21.0466 163.48 20.9234C155.995 21.9552 148.698 23.9749 141.734 26.8896C142.557 26.5447 143.377 26.1999 144.2 25.8551C143.531 26.1397 142.868 26.4298 142.205 26.7254C139.599 27.8912 137.117 28.5453 134.253 27.7599C131.859 27.103 129.267 25.2639 128.086 23.0444C126.821 20.6634 126.188 17.7761 127.046 15.1351C127.822 12.7487 129.388 10.0776 131.787 9.00202C146.747 2.29692 163.136 -1.1651 179.576 0.353808C194.693 1.74956 209.595 6.4185 222.192 14.9956C228.16 19.0597 233.762 23.7642 238.415 29.2925C240.99 32.3494 243.437 35.5651 245.533 38.9697C247.627 42.3633 249.264 45.9348 250.805 49.6021C256.817 63.9017 257.326 80.1171 254.085 95.1447C250.637 111.127 242.295 126.005 231.165 137.951C229.833 139.379 228.449 140.761 227.026 142.1C223.105 145.791 216.273 146.259 212.435 142.1C208.74 138.096 208.247 131.53 212.435 127.586Z" fill="white"/>
<path d="M227.633 146.51C230.635 139.211 232.283 131.274 232.283 122.976C232.283 87.0453 201.433 57.915 163.376 57.915C125.32 57.915 94.4696 87.0425 94.4696 122.976C94.4696 131.277 96.1178 139.211 99.1197 146.51H227.633Z" fill="#000606"/>
<mask id="mask0_451_121" style="mask-type:alpha" maskUnits="userSpaceOnUse" x="94" y="57" width="139" height="90">
<path d="M227.631 146.508C230.633 139.209 232.281 131.273 232.281 122.975C232.281 87.0438 201.431 57.9136 163.374 57.9136C125.318 57.9136 94.4677 87.0411 94.4677 122.975C94.4677 131.276 96.1158 139.209 99.1178 146.508H227.631Z" fill="#000606"/>
</mask>
<g mask="url(#mask0_451_121)">
<path d="M210.371 42.7012H196.431V173.012H210.371V42.7012Z" fill="white"/>
<path d="M181.279 42.7012H167.339V173.012H181.279V42.7012Z" fill="white"/>
<path d="M152.189 42.7012H138.25V173.012H152.189V42.7012Z" fill="white"/>
<path d="M123.096 42.7012H109.156V173.012H123.096V42.7012Z" fill="white"/>
<path d="M239.465 42.7012H225.525V173.012H239.465V42.7012Z" fill="white"/>
</g>
<path d="M31.0377 97.5976H74.4102L31.0377 47.5146V97.5976Z" fill="black"/>
<path d="M74.4087 97.5976H117.781V47.5146L74.4087 97.5976Z" fill="black"/>
<path d="M31.7812 107.983C14.2292 107.983 0.000984192 125.233 0.000984192 146.509H31.7812V107.983Z" fill="#FF0000"/>
<path d="M117.784 146.49L31.0391 146.49L31.0391 97.2743L117.784 97.2743L117.784 146.49Z" fill="black"/>
<path d="M117.781 107.983C100.229 107.983 86.001 125.233 86.001 146.509H117.781V107.983V107.983Z" fill="#FF0000"/>
</svg>
